HIERARCHY
ROOT pelvis
{
  OFFSET 0 100 0
  CHANNELS 6 Xposition Yposition Zposition Zrotation Xrotation Yrotation
  JOINT pelvis_right_femur
  {
    OFFSET -10.78128 -3.44521 -0.5502486
    CHANNELS 3 Zrotation Xrotation Yrotation
    JOINT right_femur_tibia
    {
      OFFSET -0.8047443 -44.0398 -0.1307829
      CHANNELS 3 Zrotation Xrotation Yrotation
      JOINT right_tibia_foot
      {
        OFFSET 3.006224 -47.83518 -5
        CHANNELS 3 Zrotation Xrotation Yrotation
        End Site
        {
          OFFSET 0 -5 15
        }
      }
    }
  }
  JOINT pelvis_left_femur
  {
    OFFSET 10.78128 -3.44521 -0.5502486
    CHANNELS 3 Zrotation Xrotation Yrotation
    JOINT left_femur_tibia
    {
      OFFSET 0.8047443 -44.0398 -0.1307829
      CHANNELS 3 Zrotation Xrotation Yrotation
      JOINT left_tibia_foot
      {
        OFFSET -4.370144 -48.10324 -4.275266
        CHANNELS 3 Zrotation Xrotation Yrotation
        End Site
        {
          OFFSET 0 -5 15
        }
      }
    }
  }
  JOINT pelvis_spine1
  {
    OFFSET 0 6.468898 -3.129235
    CHANNELS 3 Zrotation Xrotation Yrotation
    JOINT spine1
    {
      OFFSET 0 23.15396 4.99043
      CHANNELS 3 Zrotation Xrotation Yrotation
      JOINT spine2
      {
        OFFSET 0 20.79997 -5.064912
        CHANNELS 3 Zrotation Xrotation Yrotation
        JOINT neck
        {
          OFFSET 0 14.38658 9.616178
          CHANNELS 3 Zrotation Xrotation Yrotation
          End Site
          {
            OFFSET 0 20 0
          }
        }
      }
      JOINT right_manubrium
      {
        OFFSET -5.722621 16.35077 3.967754
        CHANNELS 3 Zrotation Xrotation Yrotation
        JOINT right_clavicle
        {
          OFFSET -13.16364 1.694482 -4.693211
          CHANNELS 3 Zrotation Xrotation Yrotation
          JOINT right_humerus
          {
            OFFSET -28.5034 -0.3100689 -2.792744
            CHANNELS 3 Zrotation Xrotation Yrotation
            JOINT right_radius
            {
              OFFSET -25.15693 0.02248979 -1.271978
              CHANNELS 3 Zrotation Xrotation Yrotation
              End Site
              {
                OFFSET -15 0 0
              }
            }
          }
        }
      }
      JOINT left_manubrium
      {
        OFFSET 5.722621 16.35077 3.967754
        CHANNELS 3 Zrotation Xrotation Yrotation
        JOINT left_clavicle
        {
          OFFSET 13.16364 1.694482 -4.693211
          CHANNELS 3 Zrotation Xrotation Yrotation
          JOINT left_humerus
          {
            OFFSET 29.39168 -1.063119 -2.237045
            CHANNELS 3 Zrotation Xrotation Yrotation
            JOINT left_radius
            {
              OFFSET 24.59957 -0.9528479 0.9047498
              CHANNELS 3 Zrotation Xrotation Yrotation
              End Site
              {
                OFFSET 15 -0 -0
              }
            }
          }
        }
      }
    }
  }
}
MOTION
Frames: 13
Frame Time: 0.0416666666667
0 103.5113 0 1.639054 -1.670081 -0.4177789 1.656082 -11.66575 8.47777 -0 37.67231 -0 -7.18335 -18.6324 -2.290838 -7.75254 8.83142 -22.78183 -0 5.012818 -0 14.8302 -10.28305 28.20184 -4.456379 -4.209087 4.77031 2.9816 11.09555 -7.892385 0.5327393 22.43674 6.920829 3.080506 -23.96998 8.673309 7.17578 -20.60263 12.4355 85.2648 38.4787 -17.75125 -0 0 15.27705 -9.154502 7.912409 6.573066 4.73456 -19.44812 -2.882848 -91.52832 20.30059 19.91092 0 0 -13.48444 13.96576 14.14255 -3.122517
0.418291 103.6315 1.332995 1.496655 -1.398038 -0.8319882 2.07119 -13.27787 8.421991 -0 36.74633 -0 -6.942322 -17.7726 -2.272397 -7.644067 9.245169 -22.49824 -0 4.854834 -0 14.3623 -11.55018 28.14664 -4.41372 -4.115283 4.784395 2.990127 10.93291 -7.915498 0.6658956 22.20727 6.914361 3.141457 -24.11106 8.780851 7.037249 -20.44715 12.30952 85.2443 37.94456 -17.88811 -0 0 15.38547 -9.03773 7.969895 6.239006 5.17663 -19.6973 -2.526078 -91.52517 20.15178 19.64404 0 0 -13.76676 14.13547 14.26494 -3.429666
0.7982823 103.7506 2.744838 1.270781 -1.269221 -1.11943 3.020352 -15.21769 9.310288 -0 37.55092 -0 -5.604444 -17.35892 -2.905338 -7.511999 9.970846 -22.76055 -0 5.713799 -0 12.39391 -14.3013 28.36455 -4.319026 -3.939375 4.904132 2.921624 10.29651 -7.769374 1.121492 22.0168 6.731536 3.035384 -24.21225 9.158968 6.792013 -20.17061 11.97874 84.99489 36.44988 -17.94833 -0 0 16.34124 -7.936881 7.907223 5.150996 5.554815 -19.39575 -1.771973 -92.65592 22.36856 20.52732 0 0 -13.77564 11.74983 15.25506 -0.6663779
1.147912 103.8003 4.353031 0.9803733 -0.7072396 -1.284695 3.79616 -17.85585 9.342888 -0 36.36784 -0 -5.278819 -15.95339 -3.00601 -7.264156 10.51957 -22.38363 -0 5.587016 -0 11.01425 -16.51699 27.82117 -4.171207 -3.670027 4.857762 2.923245 9.908726 -7.825889 1.297251 21.65595 6.786567 3.169393 -24.4984 9.31863 6.648509 -19.89603 11.77053 84.95922 35.83414 -18.24663 -0 0 16.60483 -7.649352 8.053022 4.641993 6.104335 -19.65777 -1.266417 -92.969 23.09116 20.60705 0 0 -14.33021 10.88471 15.64012 0.3307662
1.470883 103.7716 6.192991 0.6372165 -0.01046661 -1.319762 4.615078 -20.64485 9.283996 -0 34.80218 -0 -5.175286 -14.31345 -2.977368 -6.966064 10.96926 -21.84047 -0 5.457862 -0 9.683817 -18.52315 27.0274 -3.96336 -3.384072 4.787992 2.9448 9.592613 -7.932144 1.411407 21.21815 6.897121 3.361999 -24.86713 9.435726 6.548274 -19.64048 11.60452 84.94302 35.41576 -18.57815 -0 0 16.77641 -7.524758 8.270792 4.240396 6.681492 -20.03164 -0.801947 -93.14546 23.42645 20.59678 0 0 -14.92656 10.38924 15.87189 0.9090027
1.764786 103.6411 8.316562 0.2695256 0.7998043 -1.222804 5.370603 -23.58812 8.983834 -0 32.56732 -0 -5.347477 -12.45978 -2.820567 -6.627668 11.43108 -21.1019 -0 5.269298 -0 8.352456 -20.32181 25.87771 -3.720563 -3.075108 4.657208 2.987863 9.315439 -8.095479 1.452618 20.7576 7.058909 3.602537 -25.26866 9.486941 6.440293 -19.34824 11.45564 85.03213 35.19328 -19.02243 -0 0 16.68995 -7.617114 8.546372 4.002926 7.275608 -20.53433 -0.4232978 -93.06135 23.47538 20.32321 0 0 -15.74372 10.19507 15.97597 1.149121
2.027043 103.4003 10.76698 -0.1337055 1.662488 -0.9961284 6.093176 -26.57247 8.547256 -0 29.93278 -0 -5.689958 -10.50509 -2.592074 -6.251544 11.91807 -20.23418 -0 5.247615 -0 6.901926 -21.91795 24.41545 -3.427977 -2.748665 4.47822 3.042082 9.051013 -8.28827 1.453535 20.29694 7.242782 3.861954 -25.68237 9.495606 6.311702 -19.01504 11.31304 85.20875 35.05187 -19.5479 -0 0 16.42099 -7.835318 8.852146 3.86689 7.848399 -21.08868 -0.1145723 -92.83314 23.4173 19.90598 0 0 -16.69187 10.10433 16.01105 1.286633
2.254205 103.0497 13.5883 -0.5777362 2.529409 -0.6474555 6.774448 -29.49523 7.993995 -0 27.00865 -0 -6.170617 -8.524219 -2.320989 -5.837274 12.45005 -19.26389 -0 5.559461 -0 5.260967 -23.25434 22.62999 -3.07458 -2.40471 4.245774 3.101821 8.784566 -8.494913 1.426284 19.86447 7.431462 4.121149 -26.08311 9.464946 6.148217 -18.62497 11.16969 85.48355 34.9373 -20.14649 -0 0 15.96537 -8.147625 9.16682 3.819664 8.362064 -21.64995 0.1102754 -92.49578 23.35255 19.37359 0 0 -17.73561 10.00961 15.99948 1.451397
2.443485 102.6063 16.82549 -1.070181 3.349047 -0.1926807 7.420275 -32.21346 7.363348 -0 23.95248 -0 -6.756614 -6.60388 -2.036032 -5.382581 13.01857 -18.21727 -0 6.430322 -0 3.387621 -24.22206 20.52981 -2.643144 -2.046787 3.960629 3.162311 8.512587 -8.698569 1.381766 19.48338 7.606664 4.360405 -26.44991 9.397492 5.945387 -18.17004 11.02543 85.85603 34.80499 -20.7947 -0 0 15.3339 -8.519356 9.472002 3.846825 8.769914 -22.16809 0.2354565 -92.09111 23.34422 18.77156 0 0 -18.79999 9.837376 15.94824 1.733672
2.593383 102.1081 20.52444 -1.609792 4.05734 0.3395801 8.030325 -34.51977 6.693222 -0 20.94425 -0 -7.420347 -4.85493 -1.768031 -4.888029 13.59233 -17.11966 -0 8.142115 -0 1.291071 -24.65149 18.1532 -2.118117 -1.683179 3.62726 3.219501 8.241948 -8.880759 1.327647 19.18241 7.747293 4.556832 -26.75532 9.290696 5.703378 -17.64501 10.88509 86.32433 34.6241 -21.4601 -0 0 14.52979 -8.921285 9.749319 3.941691 9.012578 -22.58847 0.2358441 -91.65023 23.4252 18.13859 0 0 -19.78875 9.54667 15.84887 2.184745
2.704726 101.6231 24.72802 -2.179515 4.572573 0.9024895 8.599108 -36.11811 6.031821 -0 18.21935 -0 -8.128876 -3.423666 -1.555029 -4.361039 14.09792 -16.00208 -0 11.04956 -0 -0.9448275 -24.3198 15.60164 -1.491032 -1.329101 3.261471 3.269208 7.992358 -9.018872 1.27039 18.99671 7.82717 4.682971 -26.96398 9.138365 5.430151 -17.053 10.75993 86.87819 34.37704 -22.09444 -0 0 13.56222 -9.322701 9.980984 4.099718 9.017656 -22.84761 0.08253572 -91.20563 23.60175 17.52279 0 0 -20.57287 9.124334 15.67987 2.821884
2.781537 101.2559 29.46582 -2.735232 4.794351 1.426556 9.104482 -36.61486 5.433389 -0 16.07013 -0 -8.841204 -2.490701 -1.443157 -3.822756 14.39712 -14.90342 -0 15.55646 -0 -3.140817 -22.9852 13.06413 -0.7735615 -1.006359 2.89835 3.306037 7.797975 -9.085107 1.21568 18.96929 7.81502 4.708495 -27.03006 8.930509 5.143802 -16.41095 10.66789 87.4937 34.06736 -22.63114 -0 0 12.45333 -9.692122 10.15186 4.317635 8.708106 -22.87744 -0.2483135 -90.79382 23.85534 16.98546 0 0 -20.99755 8.58449 15.41165 3.627053
2.831042 101.1489 34.73442 -3.196106 4.615271 1.822148 9.491201 -35.55709 4.944389 -0 14.8069 -0 -9.51259 -2.241453 -1.478487 -3.316206 14.25845 -13.86676 -0 22.02166 -0 -5.035217 -20.47298 10.81101 -0.01737178 -0.7377841 2.601535 3.321701 7.705826 -9.047809 1.16837 19.14644 7.679157 4.6085 -26.89995 8.65425 4.875254 -15.75737 10.63226 88.12467 33.73419 -22.98695 -0 0 11.25011 -10.00376 10.25543 4.592666 8.027656 -22.62288 -0.756304 -90.45593 24.14556 16.60095 0 0 -20.9113 7.966355 15.01859 4.546287
